REM COMMENT "Generated by IcecastMetadataRecorder https://github.com/eshaz/icecast-metadata-js"
REM BR "16"
REM METAINT "64"
REM DATE "2020-07-29T21:16:11.222Z"
TITLE "isics-all"
FILE "isics-all.mp3" WAVE
  TRACK 1 AUDIO
    TITLE "2020-07-29T21:32:31.222Z TO:24605 Dallas County Law 1 FROM:2559984"
    INDEX 01 16:20:00
  TRACK 2 AUDIO
    TITLE "2020-07-29T21:32:32.630Z TO:7300 Department of Transportation - District 1 Highway Helper - Des Moines Area FROM:14950"
    INDEX 01 16:21:31
  TRACK 3 AUDIO
    TITLE "2020-07-29T21:32:35.446Z TO:24605 Dallas County Law 1 FROM:UNKNOWN"
    INDEX 01 16:24:17
  TRACK 4 AUDIO
    TITLE "2020-07-29T21:32:39.638Z TO:5002 Department of Public Safety - Area A Law 2A - DPS District #1 FROM:11498"
    INDEX 01 16:28:31
  TRACK 5 AUDIO
    TITLE "2020-07-29T21:32:50.838Z TO:24605 Dallas County Law 1 FROM:2500048"
    INDEX 01 16:39:46
  TRACK 6 AUDIO
    TITLE "2020-07-29T21:32:52.246Z TO:5002 Department of Public Safety - Area A Law 2A - DPS District #1 FROM:10984"
    INDEX 01 16:41:02
  TRACK 7 AUDIO
    TITLE "2020-07-29T21:32:55.030Z TO:7300 Department of Transportation - District 1 Highway Helper - Des Moines Area FROM:14966"
    INDEX 01 16:43:61
  TRACK 8 AUDIO
    TITLE "2020-07-29T21:32:59.222Z TO:7300 Department of Transportation - District 1 Highway Helper - Des Moines Area FROM:14966"
    INDEX 01 16:48:00
  TRACK 9 AUDIO
    TITLE "2020-07-29T21:33:01.334Z TO:1101 Polk County - Westcom Law Enforcement 1 FROM:8633"
    INDEX 01 16:50:08
  TRACK 10 AUDIO
    TITLE "END"
    INDEX 01 16:52:17